<svg xmlns="http://www.w3.org/2000/svg" width="1500" height="900" viewBox="0 0 1500 900">
<rect width="1500" height="900" fill="#f8fafc"/>
<text x="750" y="55" text-anchor="middle" font-family="Arial,sans-serif" font-size="34" font-weight="700" fill="#172033">Naive Bayes Results</text>
<text x="750" y="91" text-anchor="middle" font-family="Arial,sans-serif" font-size="19" fill="#64748b">Holdout accuracy and 5-fold cross-validation for the legacy OCR metadata classifiers</text>
<rect x="55" y="120" width="1390" height="85" rx="12" fill="#fff7ed" stroke="#d97706" stroke-width="2"/>
<text x="750" y="155" text-anchor="middle" font-family="Arial,sans-serif" font-size="20" font-weight="700" fill="#92400e">Interpretation</text><text x="750" y="184" text-anchor="middle" font-family="Arial,sans-serif" font-size="18" fill="#78350f">Naive Bayes is shown as the evaluated baseline. The active OCR system uses Regex + Dice fuzzy matching and has no training accuracy.</text>
<g font-family="Arial,sans-serif"><text x="375" y="270" text-anchor="middle" font-size="26" font-weight="700" fill="#172033">Holdout accuracy</text><text x="1125" y="270" text-anchor="middle" font-size="26" font-weight="700" fill="#172033">5-fold cross-validation</text>
<line x1="105" y1="720" x2="645" y2="720" stroke="#334155" stroke-width="3"/><line x1="855" y1="720" x2="1395" y2="720" stroke="#334155" stroke-width="3"/>
<g stroke="#cbd5e1" stroke-width="2" stroke-dasharray="5,5"><path d="M105 612 H645"/><path d="M105 504 H645"/><path d="M105 396 H645"/><path d="M105 288 H645"/><path d="M855 612 H1395"/><path d="M855 504 H1395"/><path d="M855 396 H1395"/><path d="M855 288 H1395"/></g>
<g font-size="16" fill="#64748b" text-anchor="end"><text x="95" y="725">0%</text><text x="95" y="617">20%</text><text x="95" y="509">40%</text><text x="95" y="401">60%</text><text x="95" y="293">80%</text><text x="95" y="185">100%</text><text x="845" y="725">0%</text><text x="845" y="617">20%</text><text x="845" y="509">40%</text><text x="845" y="401">60%</text><text x="845" y="293">80%</text><text x="845" y="185">100%</text></g>
<rect x="150" y="257" width="115" height="463" fill="#22c55e"/><rect x="335" y="180" width="115" height="540" fill="#3b82f6"/><rect x="520" y="180" width="115" height="540" fill="#8b5cf6"/>
<text x="207" y="242" text-anchor="middle" font-size="24" font-weight="700" fill="#166534">85.86%</text><text x="392" y="165" text-anchor="middle" font-size="24" font-weight="700" fill="#1e40af">100.00%</text><text x="577" y="165" text-anchor="middle" font-size="24" font-weight="700" fill="#6d28d9">100.00%</text>
<text x="207" y="755" text-anchor="middle" font-size="19" fill="#172033">Subject</text><text x="392" y="755" text-anchor="middle" font-size="19" fill="#172033">Grade Level</text><text x="577" y="755" text-anchor="middle" font-size="19" fill="#172033">Document Type</text>
<rect x="900" y="301" width="115" height="419" fill="#22c55e"/><rect x="1085" y="181" width="115" height="539" fill="#3b82f6"/><rect x="1270" y="180" width="115" height="540" fill="#8b5cf6"/>
<text x="957" y="286" text-anchor="middle" font-size="24" font-weight="700" fill="#166534">77.93%</text><text x="1142" y="165" text-anchor="middle" font-size="24" font-weight="700" fill="#1e40af">99.77%</text><text x="1327" y="165" text-anchor="middle" font-size="24" font-weight="700" fill="#6d28d9">100.00%</text>
<text x="957" y="755" text-anchor="middle" font-size="19" fill="#172033">Subject</text><text x="1142" y="755" text-anchor="middle" font-size="19" fill="#172033">Grade Level</text><text x="1327" y="755" text-anchor="middle" font-size="19" fill="#172033">Document Type</text>
<text x="375" y="810" text-anchor="middle" font-size="17" fill="#475569">Recorded holdout test set</text><text x="1125" y="810" text-anchor="middle" font-size="17" fill="#475569">Mean CV accuracy; Subject = 77.93% +/- 2.53%</text></g>
<rect x="330" y="842" width="840" height="35" rx="8" fill="#dcfce7" stroke="#059669" stroke-width="2"/><text x="750" y="866" text-anchor="middle" font-family="Arial,sans-serif" font-size="17" font-weight="700" fill="#047857">Current OCR method: Regex + Dice fuzzy matching | training-free | deterministic | OCR-noise tolerant</text>
</svg>